# xmcd
#
# Track frame offsets:
#  150
#  15809
#  28255
#  43397
#  63290
#  85887
#  103256
#  122025
#  139793
#  153101
#  183850
#  201084
#  213831
#
# Disc length: 3035 seconds
#
# Revision: 2
# Processed by: cddbd v1.5.1PL2 Copyright (c) Steve Scherf et al.
# Submitted via: Collectorz.com_Music_Collector 6.11
#
DISCID=aa0bd90d
DTITLE=Lil' Ed and The Blues Imperials - Rattleshake
DYEAR=2006
DGENRE=Blues
TTITLE0=Leaving Here
TTITLE1=Tired Of Crying
TTITLE2=Golden Rule
TTITLE3=You Just Weren't There
TTITLE4=Icicles In My Meatloaf
TTITLE5=Broken Promises
TTITLE6=Tramp On Your Street
TTITLE7=Maybe Another Time
TTITLE8=Spend Some Time With Me
TTITLE9=Nobody's Fault But My Own
TTITLE10=You Know You're Wrong
TTITLE11=That's The Truth
TTITLE12=It's A Beautiful World
EXTD=
EXTT0=
EXTT1=
EXTT2=
EXTT3=
EXTT4=
EXTT5=
EXTT6=
EXTT7=
EXTT8=
EXTT9=
EXTT10=
EXTT11=
EXTT12=
PLAYORDER=
